# Uniform-Texture Crate
#
# Created by Morgan McGuire and released into the Public Domain on
# July 16, 2011. Modified by Artyom Shalkhakov on December 16, 2011.
#
# http://g3d.sf.net
# http://www.ats-lang.org

mtllib crate.mtl

v -0.5 0.5 -0.5
v -0.5 0.5 0.5
v 0.5 0.5 0.5
v 0.5 0.5 -0.5
v -0.5 -0.5 -0.5
v -0.5 -0.5 0.5
v 0.5 -0.5 0.5
v 0.5 -0.5 -0.5

vt 0 1
vt 0 0
vt 1 0
vt 1 1

vn 0 1 0
vn -1 0 0
vn 1 0 0
vn 0 0 -1
vn 0 0 1
vn 0 -1 0

g crate
usemtl metalcrate

f 1/1/1 2/2/1 3/3/1
f 1/1/1 3/3/1 4/4/1
f 1/1/2 5/2/2 6/3/2
f 1/1/2 6/3/2 2/4/2
f 3/1/3 7/2/3 8/3/3
f 3/1/3 8/3/3 4/4/3
f 4/1/4 8/2/4 5/3/4
f 4/1/4 5/3/4 1/4/4
f 2/1/5 6/2/5 7/3/5
f 2/1/5 7/3/5 3/4/5
f 6/1/6 5/2/6 8/3/6
f 6/1/6 8/3/6 7/4/6